#!OML:ASF H:\ManfredETheater\Project 1\Capture day 1\Session 1\subject.ASF
:FULLY-SPECIFIED
:DEGREES
151
root -1.04246 20.81 -7.5201 -168.69 -4.46697 -189.779
lowerback 4.63936 -5.0829 -8.10585
upperback -2.09018 -7.4793 -1.14433
thorax -3.91032 -3.56174 3.84991
lowerneck -19.8053 0.945465 -0.335488
upperneck 14.216 1.49573 -0.562916
head 7.62661 0.641939 0.049739
rclavicle -2.3059e-014 -1.64991e-014
rhumerus -84.544 10.5557 -76.5486
rradius 87.7969
rwrist -6.71181
rhand -23.7266 8.4507
rfingers 7.12502
rthumb 2.74139 -21.5114
lclavicle -2.3059e-014 -1.64991e-014
lhumerus -35.1628 -22.9516 99.588
lradius 121.904
lwrist 13.1089
lhand -29.6634 -18.9274
lfingers 7.12502
lthumb -2.99241 11.0313
rfemur -45.7169 -7.86197 15.1762
rtibia 35.7398
rfoot 5.78647 -5.21067
rtoes -29.5855
lfemur 7.9008 -6.72107 -29.2766
ltibia 36.6877
lfoot 1.68263 -25.3908
ltoes -11.3448
152
root -1.04392 20.6818 -8.03409 -168.762 -4.51861 -190.246
lowerback 3.89241 -5.18527 -8.30664
upperback -2.16725 -7.5727 -1.22704
thorax -3.54681 -3.62557 3.7994
lowerneck -19.6401 0.941699 -0.431172
upperneck 14.6214 1.5907 -0.874458
head 7.73616 0.652393 -0.0255159
rclavicle 1.56791e-014 -3.27995e-014
rhumerus -85.8484 10.8325 -76.6413
rradius 89.28
rwrist -7.04483
rhand -23.466 8.73559
rfingers 7.12502
rthumb 2.99307 -21.2231
lclavicle 1.56791e-014 -3.27995e-014
lhumerus -35.8578 -23.9236 99.5511
lradius 122.311
lwrist 13.0258
lhand -29.293 -18.9751
lfingers 7.12502
lthumb -2.6347 10.9884
rfemur -44.5611 -7.55014 14.5659
rtibia 32.3897
rfoot 8.27311 -6.14659
rtoes -28.443
lfemur 9.02906 -7.53593 -29.7701
ltibia 37.2006
lfoot 3.56921 -25.6612
ltoes -11.2474
153
root -1.04343 20.5435 -8.54567 -168.845 -4.60835 -190.723
lowerback 3.19907 -5.26122 -8.53583
upperback -2.24539 -7.63595 -1.31708
thorax -3.21628 -3.67288 3.76006
lowerneck -19.4127 0.914179 -0.577148
upperneck 14.9669 1.66085 -1.13659
head 7.81465 0.654084 -0.0797468
rclavicle -4.88762e-014 3.27995e-014
rhumerus -87.069 11.0151 -76.7184
rradius 90.7274
rwrist -7.3122
rhand -23.2092 9.06533
rfingers 7.12502
rthumb 3.2411 -20.8898
lclavicle -4.88762e-014 3.27995e-014
lhumerus -36.6382 -24.9006 99.5617
lradius 122.633
lwrist 12.7662
lhand -28.8653 -19.0491
lfingers 7.12502
lthumb -2.22164 10.9191
rfemur -43.4324 -7.15564 13.8763
rtibia 29.6243
rfoot 10.2783 -7.29178
rtoes -27.3205
lfemur 9.91507 -8.18415 -30.2064
ltibia 38.1445
lfoot 5.3209 -25.7952
ltoes -10.6404
154
root -1.04045 20.3963 -9.05395 -168.955 -4.74438 -191.182
lowerback 2.58922 -5.31187 -8.77462
upperback -2.3178 -7.67066 -1.40537
thorax -2.92916 -3.70391 3.735
lowerneck -19.1957 0.862403 -0.72684
upperneck 15.3033 1.70093 -1.39154
head 7.89192 0.642349 -0.134638
rclavicle -9.74045e-014 -2.44505e-014
rhumerus -88.1677 11.0917 -76.7699
rradius 92.1092
rwrist -7.44989
rhand -22.9863 9.45502
rfingers 7.12502
rthumb 3.4563 -20.4967
lclavicle -9.74045e-014 -2.44505e-014
lhumerus -37.5024 -25.8481 99.6314
lradius 122.882
lwrist 12.3454
lhand -28.3933 -19.1562
lfingers 7.12502
lthumb -1.76578 10.8162
rfemur -42.3309 -6.66062 13.1405
rtibia 27.4957
rfoot 11.8346 -8.52341
rtoes -26.239
lfemur 10.5425 -8.66262 -30.5268
ltibia 39.5493
lfoot 7.01148 -25.7157
ltoes -9.6236
155
root -1.03454 20.2408 -9.55806 -169.115 -4.93036 -191.596
lowerback 2.09911 -5.33904 -9.00476
upperback -2.37739 -7.68114 -1.48645
thorax -2.69922 -3.72009 3.72449
lowerneck -18.9788 0.791754 -0.892236
upperneck 15.6089 1.71366 -1.60869
head 7.95839 0.620853 -0.177835
rclavicle 5.27773e-014 1.53064e-014
rhumerus -89.1135 11.0584 -76.7943
rradius 93.4175
rwrist -7.41513
rhand -22.8099 9.89701
rfingers 7.12502
rthumb 3.62672 -20.0519
lclavicle 5.27773e-014 1.53064e-014
lhumerus -38.4551 -26.7248 99.7633
lradius 123.071
lwrist 11.7902
lhand -27.892 -19.297
lfingers 7.12502
lthumb -1.28165 10.6789
rfemur -41.236 -6.07759 12.4122
rtibia 25.9998
rfoot 13.058 -9.70939
rtoes -25.287
lfemur 10.9071 -8.97556 -30.6889
ltibia 41.4374
lfoot 8.57097 -25.3842
ltoes -8.43319
156
root -1.02542 20.077 -10.0575 -169.338 -5.16215 -191.937
lowerback 1.74304 -5.34263 -9.2118
upperback -2.41557 -7.66696 -1.55032
thorax -2.52571 -3.72087 3.73259
lowerneck -18.781 0.704319 -1.06067
upperneck 15.8872 1.69895 -1.79589
head 8.01862 0.589171 -0.213936
rclavicle 6.01821e-014 7.55382e-015
rhumerus -89.8706 10.9136 -76.7875
rradius 94.6371
rwrist -7.19105
rhand -22.695 10.3758
rfingers 7.12502
rthumb 3.73767 -19.5712
lclavicle 6.01821e-014 7.55382e-015
lhumerus -39.4908 -27.4907 99.9605
lradius 123.208
lwrist 11.1399
lhand -27.3806 -19.4755
lfingers 7.12502
lthumb -0.78773 10.5028
rfemur -40.1237 -5.4449 11.7674
rtibia 25.0904
rfoot 14.1275 -10.7092
rtoes -24.4265
lfemur 11.0179 -9.12578 -30.6547
ltibia 43.7994
lfoot 9.91666 -24.8083
ltoes -7.30644
157
root -1.01336 19.905 -10.552 -169.638 -5.4313 -192.191
lowerback 1.52914 -5.32311 -9.38838
upperback -2.42399 -7.62891 -1.5929
thorax -2.40457 -3.70665 3.76019
lowerneck -18.6006 0.60356 -1.23117
upperneck 16.1208 1.65821 -1.94809
head 8.06644 0.548406 -0.241292
rclavicle -5.55106e-014 -3.33958e-014
rhumerus -90.401 10.6627 -76.7545
rradius 95.7515
rwrist -6.79347
rhand -22.6526 10.8667
rfingers 7.12502
rthumb 3.77862 -19.0795
lclavicle -5.55106e-014 -3.33958e-014
lhumerus -40.5941 -28.1097 100.211
lradius 123.297
lwrist 10.445
lhand -26.873 -19.6892
lfingers 7.12502
lthumb -0.297409 10.2903
rfemur -38.9707 -4.83948 11.2816
rtibia 24.7053
rfoot 15.1583 -11.3516
rtoes -23.7256
lfemur 10.8804 -9.149 -30.4231
ltibia 46.6198
lfoot 10.9878 -23.9678
ltoes -6.23979
158
root -0.998794 19.723 -11.0411 -170.017 -5.72386 -192.343
lowerback 1.45594 -5.27957 -9.52495
upperback -2.40224 -7.56557 -1.60904
thorax -2.33507 -3.67656 3.80734
lowerneck -18.4292 0.492995 -1.39818
upperneck 16.2989 1.59309 -2.06619
head 8.09672 0.499601 -0.260921
rclavicle -4.72611e-014 -7.55382e-015
rhumerus -90.6859 10.3194 -76.7062
rradius 96.7525
rwrist -6.27391
rhand -22.6822 11.3096
rfingers 7.12502
rthumb 3.75002 -18.6372
lclavicle -4.72611e-014 -7.55382e-015
lhumerus -41.762 -28.5593 100.514
lradius 123.342
lwrist 9.79085
lhand -26.4084 -19.8869
lfingers 7.12502
lthumb 0.151318 10.0928
rfemur -37.78 -4.34938 11.0323
rtibia 24.8024
rfoot 15.8405 -11.5736
rtoes -23.7837
lfemur 10.5309 -9.057 -29.992
ltibia 49.8466
lfoot 11.6755 -22.9074
ltoes -5.28794
159
root -0.982314 19.5289 -11.5246 -170.467 -6.02712 -192.394
lowerback 1.50835 -5.21379 -9.61997
upperback -2.35278 -7.47859 -1.59758
thorax -2.31121 -3.63176 3.87274
lowerneck -18.2644 0.376778 -1.55724
upperneck 16.4219 1.50758 -2.15224
head 8.10928 0.444654 -0.273708
rclavicle 3.46879e-014 5.56597e-015
rhumerus -90.7084 9.90173 -76.6585
rradius 97.6348
rwrist -5.70511
rhand -22.7722 11.64
rfingers 7.12502
rthumb 3.66307 -18.3083
lclavicle 3.46879e-014 5.56597e-015
lhumerus -42.9757 -28.8162 100.847
lradius 123.34
lwrist 9.24461
lhand -26.0016 -20.0607
lfingers 7.12502
lthumb 0.544217 9.91835
rfemur -36.5432 -4.126 11.1065
rtibia 25.3516
rfoot 15.8194 -11.0014
rtoes -25.5454
lfemur 9.98391 -8.87522 -29.3749
ltibia 53.432
lfoot 11.9291 -21.7049
ltoes -4.58876
160
root -0.964496 19.3249 -12.0019 -170.973 -6.32251 -192.337
lowerback 1.67587 -5.12499 -9.6588
upperback -2.2855 -7.36668 -1.55657
thorax -2.33917 -3.57147 3.94964
lowerneck -18.1003 0.258676 -1.69145
upperneck 16.4817 1.40589 -2.22871
head 8.10074 0.384468 -0.289362
rclavicle 2.03754e-015 2.38542e-015
rhumerus -90.4584 9.42851 -76.6314
rradius 98.3811
rwrist -5.15846
rhand -22.9252 11.8517
rfingers 7.12502
rthumb 3.51536 -18.0991
lclavicle 2.03754e-015 2.38542e-015
lhumerus -44.2129 -28.8652 101.187
lradius 123.281
lwrist 8.87467
lhand -25.6621 -20.1887
lfingers 7.12502
lthumb 0.87212 9.78931
rfemur -35.2681 -4.09017 11.4477
rtibia 26.3339
rfoot 14.8877 -9.96142
rtoes -27.2367
lfemur 9.2482 -8.62229 -28.5788
ltibia 57.3024
lfoot 11.7113 -20.4427
ltoes -4.12592
161
root -0.945898 19.1112 -12.4729 -171.516 -6.59407 -192.175
lowerback 1.93439 -5.01231 -9.64346
upperback -2.20554 -7.22656 -1.48281
thorax -2.41073 -3.49449 4.03951
lowerneck -17.9207 0.141647 -1.79592
upperneck 16.4699 1.29248 -2.30792
head 8.06557 0.320543 -0.312167
rclavicle 1.49089e-015 1.66979e-014
rhumerus -89.9283 8.91585 -76.6388
rradius 98.9798
rwrist -4.70157
rhand -23.1276 11.9218
rfingers 7.12502
rthumb 3.31992 -18.0321
lclavicle 1.49089e-015 1.66979e-014
lhumerus -45.4398 -28.702 101.515
lradius 123.148
lwrist 8.73662
lhand -25.3821 -20.2562
lfingers 7.12502
lthumb 1.14256 9.72045
rfemur -33.972 -4.21417 12.0332
rtibia 27.7135
rfoot 12.8641 -8.52721
rtoes -27.905
lfemur 8.32385 -8.31371 -27.6194
ltibia 61.3956
lfoot 11.0593 -19.1986
ltoes -3.86741
